<svg
                  width="27"
                  height="25"
                  viewBox="0 0 27 31"
                  fill="none"
                  xmlns="http://www.w3.org/2000/svg"
                >
                  <path
                    d="M27 6.64286C27 9.49191 24.645 11.8095 21.75 11.8095C18.855 11.8095 16.5 9.49191 16.5 6.64286C16.5 3.79382 18.855 1.4762 21.75 1.4762C24.645 1.4762 27 3.79382 27 6.64286ZM24 14.4519C23.25 14.6438 22.5 14.7619 21.75 14.7619C19.5632 14.758 17.4671 13.9014 15.9207 12.3796C14.3744 10.8578 13.504 8.79497 13.5 6.64286C13.5 4.47286 14.37 2.50953 15.75 1.0481C15.4778 0.71971 15.1346 0.455221 14.7453 0.273906C14.3561 0.0925913 13.9306 -0.000980935 13.5 7.75396e-06C11.85 7.75396e-06 10.5 1.32858 10.5 2.95239V3.38048C6.045 4.67953 3 8.70953 3 13.2857V22.1429L0 25.0952V26.5714H27V25.0952L24 22.1429V14.4519ZM13.5 31C15.165 31 16.5 29.6862 16.5 28.0476H10.5C10.5 28.8306 10.8161 29.5816 11.3787 30.1353C11.9413 30.6889 12.7044 31 13.5 31Z"
                    fill="#F8F8F8"
                  />
                </svg>