<svg
    width="75"
    height="35"
    viewBox="0 0 85 45"
    fill="none"
    xmlns="http://www.w3.org/2000/svg"
    >
    <rect width="85" height="45" rx="10" fill="#199FB1" />
    <path
        d="M54 33L46.6667 25.6667M32 19.5556C32 20.6791 32.2213 21.7916 32.6513 22.8296C33.0812 23.8676 33.7114 24.8108 34.5059 25.6052C35.3003 26.3997 36.2435 27.0299 37.2815 27.4599C38.3195 27.8898 39.432 28.1111 40.5556 28.1111C41.6791 28.1111 42.7916 27.8898 43.8296 27.4599C44.8676 27.0299 45.8108 26.3997 46.6052 25.6052C47.3997 24.8108 48.0299 23.8676 48.4599 22.8296C48.8898 21.7916 49.1111 20.6791 49.1111 19.5556C49.1111 18.432 48.8898 17.3195 48.4599 16.2815C48.0299 15.2435 47.3997 14.3003 46.6052 13.5059C45.8108 12.7114 44.8676 12.0812 43.8296 11.6513C42.7916 11.2213 41.6791 11 40.5556 11C39.432 11 38.3195 11.2213 37.2815 11.6513C36.2435 12.0812 35.3003 12.7114 34.5059 13.5059C33.7114 14.3003 33.0812 15.2435 32.6513 16.2815C32.2213 17.3195 32 18.432 32 19.5556Z"
        stroke="#F8F8F8"
        stroke-width="2"
        stroke-linecap="round"
        stroke-linejoin="round"
    />
</svg>